<svg xmlns="http://www.w3.org/2000/svg" viewBox="0 0 1440 320"><path fill="#ff5500" fill-opacity="1" d="M0,256L30,256C60,256,120,256,180,240C240,224,300,192,360,149.3C420,107,480,53,540,42.7C600,32,660,64,720,80C780,96,840,96,900,96C960,96,1020,96,1080,128C1140,160,1200,224,1260,229.3C1320,235,1380,181,1410,154.7L1440,128L1440,0L1410,0C1380,0,1320,0,1260,0C1200,0,1140,0,1080,0C1020,0,960,0,900,0C840,0,780,0,720,0C660,0,600,0,540,0C480,0,420,0,360,0C300,0,240,0,180,0C120,0,60,0,30,0L0,0Z"></path></svg>